<svg xmlns="http://www.w3.org/2000/svg" width="430" height="430" fill="none" viewBox="0 0 430 430"><g stroke-linejoin="round" stroke-width="12"><path stroke="#fff" d="M233.078 193.878v-50.316h-39.451v103.456c-34.987-16.621-59.176-52.282-59.176-93.593 0-3.326.157-6.616.463-9.862h-39.58a145 145 0 0 0-.334 9.862c0 77.332 61.38 140.327 138.078 142.926v-57.708c30.05 5.701 54.068 28.441 61.622 57.792H335c-5.868-34.976-27.076-64.75-56.47-82.167 22.936-16.891 39.558-41.858 45.672-70.706h-40.808c-7.804 23.744-26.573 42.512-50.316 50.316Z"/><path stroke="#a39cf4" d="M55 75c0-11.046 8.954-20 20-20h280c11.046 0 20 8.954 20 20v280c0 11.046-8.954 20-20 20H75c-11.046 0-20-8.954-20-20z"/></g></svg>